<svg xmlns="http://www.w3.org/2000/svg" viewBox="0 0 490.91 291.65"><defs><style>.cls-1,.cls-2{fill:none;stroke:#fff;stroke-miterlimit:10;}.cls-2{stroke-linecap:round;}</style></defs><g id="Calque_2" data-name="Calque 2"><g id="Calque_1-2" data-name="Calque 1"><path class="cls-1" d="M246.73,126a14.89,14.89,0,1,1-14.89-14.88A14.86,14.86,0,0,1,246.73,126Z"/><path class="cls-2" d="M236.23,115.62c4.71.64,7.28,7,5.89,10.38"/><path class="cls-1" d="M239.44,78.13a14.89,14.89,0,1,1-14.88-14.88A14.85,14.85,0,0,1,239.44,78.13Z"/><path class="cls-2" d="M229,67.74c4.71.65,7.28,7,5.89,10.39"/><path class="cls-1" d="M345.9,148.82A14.89,14.89,0,1,1,331,133.93,14.85,14.85,0,0,1,345.9,148.82Z"/><path class="cls-2" d="M335.51,138.43c4.71.64,7.28,7,5.89,10.39"/><path class="cls-1" d="M219.31,232.37a14.89,14.89,0,1,1-14.89-14.89A14.86,14.86,0,0,1,219.31,232.37Z"/><path class="cls-2" d="M208.92,222c4.71.64,7.28,7,5.89,10.39"/><path class="cls-1" d="M159.23,96.87A14.89,14.89,0,1,1,144.34,82,14.86,14.86,0,0,1,159.23,96.87Z"/><path class="cls-2" d="M148.84,86.49c4.71.64,7.28,7,5.89,10.38"/><path class="cls-1" d="M335.51,73A14.89,14.89,0,1,1,320.62,58.1,14.86,14.86,0,0,1,335.51,73Z"/><path class="cls-2" d="M325,62.6c4.71.65,7.28,7,5.89,10.39"/><path class="cls-1" d="M242.87,257.74a9.21,9.21,0,1,1-9.21-9.22A9.21,9.21,0,0,1,242.87,257.74Z"/><path class="cls-2" d="M236.45,251.42c2.89.42,4.49,4.28,3.64,6.42"/><path class="cls-1" d="M287.75,106.62a9.22,9.22,0,1,1-9.21-9.21A9.21,9.21,0,0,1,287.75,106.62Z"/><path class="cls-2" d="M281.32,100.19c2.89.43,4.5,4.29,3.64,6.43"/><path class="cls-1" d="M296.85,89.27a9.21,9.21,0,1,1-9.21-9.21A9.21,9.21,0,0,1,296.85,89.27Z"/><path class="cls-2" d="M290.42,82.84c2.89.43,4.5,4.29,3.64,6.43"/><path class="cls-1" d="M344.61,103.41a9.21,9.21,0,1,1-9.21-9.21A9.21,9.21,0,0,1,344.61,103.41Z"/><path class="cls-2" d="M338.19,97.09c2.89.43,4.5,4.28,3.64,6.42"/><path class="cls-1" d="M161.16,120.76a9.22,9.22,0,1,1-9.21-9.21A9.21,9.21,0,0,1,161.16,120.76Z"/><path class="cls-2" d="M154.73,114.44c2.89.43,4.5,4.28,3.64,6.42"/><circle class="cls-1" cx="285.18" cy="73.85" r="6.53"/><path class="cls-2" d="M287.1,69.24c2.14.32,3.22,3.11,2.57,4.61"/><path class="cls-1" d="M263.65,86.49A6.54,6.54,0,1,1,257.12,80,6.63,6.63,0,0,1,263.65,86.49Z"/><path class="cls-2" d="M259,82c2.15.32,3.22,3.1,2.57,4.6"/><path class="cls-1" d="M265.58,106.62a6.54,6.54,0,1,1-6.54-6.53A6.5,6.5,0,0,1,265.58,106.62Z"/><path class="cls-2" d="M261,102c2.14.33,3.21,3.11,2.57,4.61"/><path class="cls-1" d="M276,143.68a6.53,6.53,0,1,1-6.53-6.54A6.49,6.49,0,0,1,276,143.68Z"/><path class="cls-2" d="M271.36,139.07c2.14.32,3.21,3.11,2.57,4.61"/><path class="cls-1" d="M287.21,150.21a6.54,6.54,0,1,1-6.53-6.53A6.49,6.49,0,0,1,287.21,150.21Z"/><path class="cls-2" d="M282.6,145.6c2.15.32,3.22,3.11,2.58,4.61"/><path class="cls-1" d="M322.77,106.62a6.54,6.54,0,1,1-6.54-6.53A6.5,6.5,0,0,1,322.77,106.62Z"/><path class="cls-2" d="M318.16,102c2.14.33,3.21,3.11,2.57,4.61"/><path class="cls-1" d="M277.89,8.41a6.53,6.53,0,1,1-13.06,0,6.49,6.49,0,0,1,6.53-6.53A6.42,6.42,0,0,1,277.89,8.41Z"/><path class="cls-2" d="M273.29,3.81c2.14.32,3.21,3.1,2.57,4.6"/><path class="cls-1" d="M282.5,47.18A6.54,6.54,0,1,1,276,40.65,6.56,6.56,0,0,1,282.5,47.18Z"/><path class="cls-2" d="M277.89,42.68c2.14.32,3.22,3.11,2.57,4.61"/><path class="cls-1" d="M288.82,35.29a6.54,6.54,0,1,1-6.54-6.53A6.5,6.5,0,0,1,288.82,35.29Z"/><path class="cls-2" d="M284.21,30.79c2.14.33,3.21,3.11,2.57,4.61"/><path class="cls-1" d="M187.72,176.45a6.54,6.54,0,1,1-6.54-6.54A6.57,6.57,0,0,1,187.72,176.45Z"/><path class="cls-2" d="M183.11,172c2.14.32,3.21,3.11,2.57,4.6"/><circle class="cls-1" cx="229.38" cy="281.19" r="6.53"/><path class="cls-2" d="M231.3,276.58c2.15.33,3.22,3.11,2.58,4.61"/><circle class="cls-1" cx="165.12" cy="89.27" r="6.53"/><path class="cls-2" d="M167.05,84.66c2.14.33,3.21,3.11,2.57,4.61"/><circle class="cls-1" cx="183" cy="87.02" r="6.53"/><path class="cls-2" d="M184.93,82.42c2.14.32,3.21,3.1,2.57,4.6"/><circle class="cls-1" cx="189.54" cy="106.62" r="6.53"/><path class="cls-2" d="M191.57,102c2.14.33,3.21,3.11,2.57,4.61"/><path class="cls-1" d="M183,120.76a6.53,6.53,0,1,1-6.53-6.54A6.49,6.49,0,0,1,183,120.76Z"/><path class="cls-2" d="M178.4,116.26c2.14.32,3.21,3.1,2.57,4.6"/><circle class="cls-1" cx="242.01" cy="204.83" r="2.25"/><path class="cls-2" d="M242.66,203.33a1.17,1.17,0,0,1,.85,1.5"/><circle class="cls-1" cx="227.66" cy="196.26" r="2.25"/><path class="cls-2" d="M228.31,194.76a1.17,1.17,0,0,1,.85,1.5"/><circle class="cls-1" cx="235.16" cy="207.08" r="2.25"/><path class="cls-2" d="M235.91,205.47a1.19,1.19,0,0,1,.86,1.5"/><circle class="cls-1" cx="214.81" cy="257.74" r="2.25"/><path class="cls-2" d="M215.45,256.24a1.17,1.17,0,0,1,.86,1.5"/><circle class="cls-1" cx="242.01" cy="145.6" r="2.25"/><path class="cls-2" d="M242.66,144.1a1.18,1.18,0,0,1,.85,1.5"/><circle class="cls-1" cx="242.01" cy="166.06" r="2.25"/><path class="cls-2" d="M242.66,164.45a1.17,1.17,0,0,1,.85,1.5"/><circle class="cls-1" cx="214.81" cy="288.9" r="2.25"/><path class="cls-2" d="M215.45,287.4a1.18,1.18,0,0,1,.86,1.5"/><circle class="cls-1" cx="244.16" cy="252.7" r="2.25"/><path class="cls-2" d="M244.8,251.2a1.19,1.19,0,0,1,.86,1.5"/><circle class="cls-1" cx="204.42" cy="162.31" r="2.25"/><path class="cls-2" d="M205.07,160.7a1.18,1.18,0,0,1,.85,1.5"/><circle class="cls-1" cx="176.47" cy="215" r="2.25"/><path class="cls-2" d="M177.11,213.4a1.18,1.18,0,0,1,.86,1.5"/><circle class="cls-1" cx="288.82" cy="185.44" r="2.25"/><path class="cls-2" d="M289.46,183.84a1.18,1.18,0,0,1,.86,1.5"/><circle class="cls-1" cx="262.36" cy="230.75" r="2.25"/><path class="cls-2" d="M263,229.25a1.17,1.17,0,0,1,.85,1.5"/><circle class="cls-1" cx="187.72" cy="30.79" r="2.25"/><path class="cls-2" d="M188.36,29.19a1.18,1.18,0,0,1,.86,1.5"/><circle class="cls-1" cx="196.18" cy="62.6" r="2.25"/><path class="cls-2" d="M196.82,61.1a1.19,1.19,0,0,1,.86,1.5"/><circle class="cls-1" cx="294.28" cy="144.1" r="2.25"/><path class="cls-2" d="M294.92,142.6a1.19,1.19,0,0,1,.86,1.5"/><circle class="cls-1" cx="296.85" cy="133.93" r="2.25"/><path class="cls-2" d="M297.49,132.43a1.19,1.19,0,0,1,.86,1.5"/><circle class="cls-1" cx="324.37" cy="126" r="2.25"/><path class="cls-2" d="M325,124.4a1.17,1.17,0,0,1,.85,1.5"/><circle class="cls-1" cx="257.01" cy="57.14" r="2.25"/><path class="cls-2" d="M257.65,55.64a1.19,1.19,0,0,1,.86,1.5"/><circle class="cls-1" cx="225.41" cy="10.87" r="2.25"/><path class="cls-2" d="M226.16,9.27a1.17,1.17,0,0,1,.86,1.5"/><circle class="cls-1" cx="225.41" cy="29.19" r="2.25"/><path class="cls-2" d="M226.16,27.58a1.18,1.18,0,0,1,.86,1.5"/><circle class="cls-1" cx="225.41" cy="62.07" r="2.25"/><path class="cls-2" d="M226.16,60.46A1.18,1.18,0,0,1,227,62"/><circle class="cls-1" cx="301.35" cy="48.04" r="2.25"/><path class="cls-2" d="M302,46.43a1.19,1.19,0,0,1,.86,1.5"/><circle class="cls-1" cx="335.51" cy="58.1" r="2.25"/><path class="cls-2" d="M336.15,56.5A1.19,1.19,0,0,1,337,58"/><circle class="cls-1" cx="169.83" cy="69.24" r="2.25"/><path class="cls-2" d="M170.58,67.64a1.18,1.18,0,0,1,.86,1.5"/><circle class="cls-1" cx="148.84" cy="76.1" r="2.25"/><path class="cls-2" d="M149.48,74.49a1.19,1.19,0,0,1,.86,1.5"/><path class="cls-1" d="M453.51,36.37a12,12,0,1,1-12-12A12,12,0,0,1,453.51,36.37Z"/><path class="cls-2" d="M445,28c3.9.57,5.85,5.62,4.7,8.37"/><path class="cls-1" d="M376.51,103.86a12,12,0,1,1-12-12A12,12,0,0,1,376.51,103.86Z"/><path class="cls-2" d="M368.15,95.49c3.89.58,5.84,5.62,4.69,8.37"/><circle class="cls-1" cx="343.62" cy="233.57" r="8.37"/><path class="cls-2" d="M346.14,227.84c2.63.35,4,3.9,3.32,5.85"/><circle class="cls-1" cx="366.14" cy="205.7" r="8.37"/><path class="cls-2" d="M368.66,199.85c2.64.35,4,3.9,3.32,5.85"/><circle class="cls-1" cx="465.55" cy="222.12" r="8.37"/><path class="cls-2" d="M468,216.27c2.64.35,4,3.9,3.33,5.85"/><circle class="cls-1" cx="388.43" cy="96.64" r="8.37"/><path class="cls-2" d="M390.83,90.91c2.64.34,4,3.9,3.33,5.85"/><circle class="cls-1" cx="392.67" cy="78.88" r="8.37"/><path class="cls-2" d="M395.07,73.15c2.64.34,4,3.9,3.33,5.84"/><circle class="cls-1" cx="360.47" cy="160.7" r="8.37"/><path class="cls-2" d="M363,154.86c2.63.34,4,3.9,3.32,5.84"/><circle class="cls-1" cx="441.48" cy="81.29" r="8.37"/><path class="cls-2" d="M444,75.44c2.64.35,4,3.9,3.33,5.85"/><circle class="cls-1" cx="471.96" cy="159.44" r="8.37"/><path class="cls-2" d="M474.37,153.71c2.64.34,4,3.89,3.32,5.84"/><circle class="cls-1" cx="447.56" cy="278.95" r="8.37"/><path class="cls-2" d="M450.08,273.22c2.63.35,4,3.9,3.32,5.85"/><circle class="cls-1" cx="311.53" cy="203.89" r="4.01"/><path class="cls-2" d="M312.91,201.14a2.17,2.17,0,0,1,1.37,2.87"/><circle class="cls-1" cx="380.06" cy="166.43" r="4.01"/><path class="cls-2" d="M381.44,163.68a2.16,2.16,0,0,1,1.37,2.86"/><circle class="cls-1" cx="409.05" cy="191.18" r="4.01"/><path class="cls-2" d="M410.43,188.43a2.16,2.16,0,0,1,1.37,2.86"/><circle class="cls-1" cx="277.95" cy="197.13" r="4.01"/><path class="cls-2" d="M279.33,194.38a2.17,2.17,0,0,1,1.37,2.87"/><circle class="cls-1" cx="299.33" cy="223.37" r="4.01"/><path class="cls-2" d="M300.7,220.74a2.16,2.16,0,0,1,1.38,2.86"/><circle class="cls-1" cx="447.44" cy="256.03" r="4.01"/><path class="cls-2" d="M448.82,253.28a2.17,2.17,0,0,1,1.37,2.87"/><circle class="cls-1" cx="419.83" cy="281.59" r="4.01"/><path class="cls-2" d="M421.2,278.84a2.17,2.17,0,0,1,1.38,2.86"/><circle class="cls-1" cx="441.48" cy="230.37" r="4.01"/><path class="cls-2" d="M442.86,227.73a2.17,2.17,0,0,1,1.37,2.87"/><circle class="cls-1" cx="480.21" cy="276.55" r="4.01"/><path class="cls-2" d="M481.59,273.8a2.16,2.16,0,0,1,1.37,2.86"/><circle class="cls-1" cx="441.48" cy="133.08" r="4.01"/><path class="cls-2" d="M442.86,130.33a2.16,2.16,0,0,1,1.37,2.86"/><circle class="cls-1" cx="442.86" cy="14.94" r="4.01"/><path class="cls-2" d="M444.23,12.3a2.17,2.17,0,0,1,1.38,2.87"/><circle class="cls-1" cx="413.06" cy="4.51" r="4.01"/><path class="cls-2" d="M414.44,1.88a2.16,2.16,0,0,1,1.37,2.86"/><circle class="cls-1" cx="364.48" cy="23.3" r="4.01"/><path class="cls-2" d="M365.85,20.67a2.17,2.17,0,0,1,1.38,2.86"/><circle class="cls-1" cx="405.04" cy="50.12" r="4.01"/><path class="cls-2" d="M406.42,47.37a2.16,2.16,0,0,1,1.37,2.86"/><circle class="cls-1" cx="423.84" cy="101.68" r="4.01"/><path class="cls-2" d="M425.21,98.93a2.18,2.18,0,0,1,1.38,2.87"/><circle class="cls-1" cx="480.21" cy="66.5" r="4.01"/><path class="cls-2" d="M481.59,63.75A2.17,2.17,0,0,1,483,66.62"/><circle class="cls-1" cx="450.06" cy="182.98" r="4.01"/><path class="cls-2" d="M451.43,180.23a2.17,2.17,0,0,1,1.38,2.87"/><circle class="cls-1" cx="486.4" cy="178.34" r="4.01"/><path class="cls-2" d="M487.78,175.71a2.16,2.16,0,0,1,1.37,2.86"/><path class="cls-1" d="M477.58,109.25a12,12,0,1,1-12-12A12,12,0,0,1,477.58,109.25Z"/><path class="cls-2" d="M473.91,105.35c2.29,2.63.46,7.79-1,8.59"/><path class="cls-2" d="M469.9,100.31a5.92,5.92,0,0,1,3.09,2.75"/><circle class="cls-2" cx="474.37" cy="120.36" r="2.52"/><circle class="cls-2" cx="354.97" cy="151.07" r="2.52"/><path class="cls-1" d="M423.26,147.4a12,12,0,1,1-12-12A12,12,0,0,1,423.26,147.4Z"/><path class="cls-2" d="M414.78,139c3.9.57,5.85,5.61,4.7,8.36"/><circle class="cls-2" cx="399.2" cy="136.98" r="2.52"/><path class="cls-1" d="M317.06,260.62a12,12,0,1,1-12-12A12,12,0,0,1,317.06,260.62Z"/><path class="cls-2" d="M308.58,252.25c3.89.57,5.84,5.62,4.69,8.37"/><circle class="cls-2" cx="312.99" cy="240.07" r="2.52"/><path class="cls-1" d="M101.57,39.06a12,12,0,1,1-12-12A12,12,0,0,1,101.57,39.06Z"/><path class="cls-2" d="M93.09,30.69c3.89.58,5.84,5.62,4.7,8.37"/><path class="cls-1" d="M24.56,106.55a12,12,0,1,1-12-12A12,12,0,0,1,24.56,106.55Z"/><path class="cls-2" d="M16.2,98.19c3.89.57,5.84,5.61,4.7,8.36"/><circle class="cls-1" cx="54.59" cy="239.82" r="8.37"/><path class="cls-2" d="M57.11,234.09c2.63.34,4,3.9,3.32,5.84"/><circle class="cls-1" cx="57.11" cy="221.94" r="8.37"/><path class="cls-2" d="M59.63,216.1c2.63.34,4,3.89,3.32,5.84"/><circle class="cls-1" cx="113.6" cy="224.81" r="8.37"/><path class="cls-2" d="M116,219c2.63.35,4,3.9,3.32,5.85"/><circle class="cls-1" cx="36.48" cy="99.33" r="8.37"/><path class="cls-2" d="M38.89,93.6c2.63.35,4,3.9,3.32,5.85"/><circle class="cls-1" cx="40.72" cy="81.57" r="8.37"/><path class="cls-2" d="M43.13,75.84c2.63.34,4,3.9,3.32,5.85"/><circle class="cls-1" cx="89.54" cy="61.17" r="8.37"/><path class="cls-2" d="M92.06,55.33c2.63.34,4,3.9,3.32,5.84"/><circle class="cls-1" cx="89.54" cy="83.98" r="8.37"/><path class="cls-2" d="M92.06,78.13c2.63.35,4,3.9,3.32,5.85"/><circle class="cls-1" cx="120.02" cy="162.13" r="8.37"/><path class="cls-2" d="M122.42,156.4c2.64.34,4,3.89,3.33,5.84"/><circle class="cls-1" cx="95.61" cy="281.64" r="8.37"/><path class="cls-2" d="M98.13,275.91c2.64.35,4,3.9,3.32,5.85"/><circle class="cls-1" cx="22.5" cy="210.14" r="4.01"/><path class="cls-2" d="M23.88,207.39a2.16,2.16,0,0,1,1.37,2.86"/><circle class="cls-1" cx="28.12" cy="169.12" r="4.01"/><path class="cls-2" d="M29.49,166.37a2.17,2.17,0,0,1,1.38,2.86"/><circle class="cls-1" cx="57.11" cy="193.87" r="4.01"/><path class="cls-2" d="M58.48,191.12A2.17,2.17,0,0,1,59.86,194"/><circle class="cls-1" cx="61.35" cy="232.26" r="4.01"/><path class="cls-2" d="M62.72,229.51a2.16,2.16,0,0,1,1.38,2.86"/><circle class="cls-1" cx="62.72" cy="258.5" r="4.01"/><path class="cls-2" d="M64.1,255.86a2.17,2.17,0,0,1,1.37,2.87"/><circle class="cls-1" cx="95.49" cy="258.73" r="4.01"/><path class="cls-2" d="M96.87,256a2.16,2.16,0,0,1,1.37,2.86"/><circle class="cls-1" cx="67.88" cy="284.28" r="4.01"/><path class="cls-2" d="M69.25,281.53a2.17,2.17,0,0,1,1.38,2.86"/><circle class="cls-1" cx="89.54" cy="233.06" r="4.01"/><path class="cls-2" d="M90.91,230.42a2.18,2.18,0,0,1,1.38,2.87"/><circle class="cls-1" cx="128.27" cy="279.24" r="4.01"/><path class="cls-2" d="M129.64,276.49a2.17,2.17,0,0,1,1.38,2.86"/><circle class="cls-1" cx="89.54" cy="135.77" r="4.01"/><path class="cls-2" d="M90.91,133a2.18,2.18,0,0,1,1.38,2.87"/><circle class="cls-1" cx="90.91" cy="17.63" r="4.01"/><path class="cls-2" d="M92.29,15a2.17,2.17,0,0,1,1.37,2.87"/><circle class="cls-1" cx="61.12" cy="7.2" r="4.01"/><path class="cls-2" d="M62.49,4.57a2.16,2.16,0,0,1,1.38,2.86"/><circle class="cls-1" cx="12.53" cy="25.99" r="4.01"/><path class="cls-2" d="M13.91,23.36a2.16,2.16,0,0,1,1.37,2.86"/><circle class="cls-1" cx="53.1" cy="52.81" r="4.01"/><path class="cls-2" d="M54.47,50.06a2.17,2.17,0,0,1,1.38,2.86"/><circle class="cls-1" cx="71.89" cy="104.37" r="4.01"/><path class="cls-2" d="M73.26,101.62a2.17,2.17,0,0,1,1.38,2.87"/><circle class="cls-1" cx="128.27" cy="69.19" r="4.01"/><path class="cls-2" d="M129.64,66.44A2.17,2.17,0,0,1,131,69.31"/><circle class="cls-1" cx="132.28" cy="193.87" r="4.01"/><path class="cls-2" d="M133.65,191.12A2.17,2.17,0,0,1,135,194"/><circle class="cls-1" cx="134.46" cy="181.03" r="4.01"/><path class="cls-2" d="M135.83,178.4a2.17,2.17,0,0,1,1.38,2.86"/><path class="cls-1" d="M125.63,111.94a12,12,0,1,1-12-12A12,12,0,0,1,125.63,111.94Z"/><path class="cls-2" d="M122,108c2.3,2.64.46,7.79-1,8.59"/><path class="cls-2" d="M118,103a5.94,5.94,0,0,1,3.1,2.75"/><circle class="cls-2" cx="122.42" cy="123.05" r="2.52"/><circle class="cls-2" cx="77.5" cy="28.52" r="2.52"/><path class="cls-1" d="M71.32,150.09a12,12,0,1,1-12-12A12,12,0,0,1,71.32,150.09Z"/><path class="cls-2" d="M62.84,141.73c3.89.57,5.84,5.61,4.69,8.36"/><circle class="cls-2" cx="47.25" cy="139.67" r="2.52"/><path class="cls-1" d="M58,266.86a12,12,0,1,1-12-12A12,12,0,0,1,58,266.86Z"/><path class="cls-2" d="M49.54,258.5c3.9.57,5.85,5.61,4.7,8.36"/><circle class="cls-2" cx="33.96" cy="256.32" r="2.52"/></g></g></svg>